<?xml version="1.0" standalone="no"?><!DOCTYPE svg PUBLIC "-//W3C//DTD SVG 1.1//EN" "http://www.w3.org/Graphics/SVG/1.1/DTD/svg11.dtd"><svg class="icon" height="512" viewBox="0 0 1024 1024" version="1.1" xmlns="http://www.w3.org/2000/svg"><path d="M511.514953 191.942567C334.778716 191.942567 191.536314 306.053488 191.536314 446.799022c0 89.480964 57.923224 168.141488 145.513118 213.611076l-24.182772 125.323287 138.382721-88.649016c19.522636 2.975774 39.650045 4.577249 60.265572 4.577249 176.726004 0 319.995011-114.110921 319.995011-254.863618C831.508941 306.053488 688.240957 191.942567 511.514953 191.942567zM349.295338 522.196223c0 3.536546-1.437745 7.008624-3.971451 9.522887-2.496867 2.520403-5.980201 3.959172-9.508561 3.959172l-3.022847 0c-3.530406 0-7.014764-1.438769-9.522887-3.976568-2.51938-2.496867-3.959172-5.968945-3.959172-9.505491L319.31042 410.786831 286.519596 410.786831c-2.686179 0-5.301749-0.74292-7.537673-2.122337-2.163269-1.357927-3.852748-3.239787-4.886287-5.465478-0.669242-1.476631-1.058099-3.124154-1.058099-4.767584 0-1.64036 0.388856-3.287883 1.070378-4.803399 0.677429-1.444908 1.65264-2.764973 2.889817-3.89982 2.543939-2.356674 5.932106-3.650133 9.521864-3.650133l95.210455 0c2.687202 0 5.302773 0.73678 7.525394 2.116197 2.175549 1.343601 3.88754 3.245927 4.910846 5.451152 0.677429 1.5104 1.045819 3.15997 1.045819 4.78498 0 1.629103-0.36839 3.27765-1.045819 4.767584-0.700965 1.480724-1.676176 2.815115-2.888793 3.938706-2.579755 2.348488-5.944386 3.650133-9.547447 3.650133l-32.435737 0L349.294314 522.196223zM508.792958 529.115819c-1.414209 2.229784-3.388167 3.982708-5.789866 5.070482l-2.794649 1.254573c-4.030803 1.836835-8.928347 1.532913-12.756535-0.880043-2.235924-1.402953-3.982708-3.394307-5.076622-5.796006l-11.045567-24.223704-62.206784 0-10.973936 24.087605c-1.081635 2.38942-2.829442 4.386914-5.065366 5.77861-3.828188 2.426259-8.761548 2.740414-12.781094 0.89744l-2.77009-1.26583c-2.390443-1.081635-4.399193-2.835581-5.792936-5.076622-1.364067-2.175549-2.080382-4.678556-2.080382-7.234775 0-1.925862 0.404206-3.804652 1.204431-5.54325l54.096059-118.597095 0.404206-1.12359c0.357134-1.367137 0.906649-2.656503 1.65264-3.852748 0.226151-0.357134 0.487094-0.707105 1.058099-1.474584 1.045819-1.6465 2.472308-3.067872 4.129041-4.095271 2.176572-1.360997 4.680603-2.086521 7.225565-2.086521 0.558725 0 1.084705 0.041956 2.223644 0.154519 2.378164 0.100284 4.675486 0.813528 6.684236 2.074242 1.153266 0.725524 2.184759 1.610684 3.411703 3.037173 0.689708 0.713244 1.296529 1.468444 1.794879 2.276856 0.808412 1.296529 1.403976 2.723018 1.760087 4.26207l57.376779 126.160351L508.792958 529.115819zM623.551632 528.801664c-0.665149 1.230014-1.52268 2.348488-2.559289 3.269463-2.556219 2.318812-5.944386 3.608178-9.535167 3.608178l-78.529541 0c-0.474814 0-0.938372-0.041956-1.414209-0.071631-2.200108-0.232291-4.328585-0.921999-6.135744-2.033309-1.911536-1.176802-3.483334-2.799766-4.530177-4.695952l-1.367137-2.205225L519.480368 399.545812c0-3.5345 1.451048-7.011694 3.971451-9.520841 2.499937-2.514263 5.947456-3.946892 9.510608-3.946892l3.067872 0c3.51915 0 6.980995 1.432629 9.490142 3.965312 2.508123 2.490727 3.946892 5.967922 3.946892 9.502421l0 111.763456 61.989843 0c2.687202 0 5.302773 0.727571 7.514137 2.074242 1.12052 0.707105 2.103918 1.537006 2.951215 2.451842l5.373381 6.022157L623.551632 528.801664zM749.293451 526.447037c-0.939395 1.919722-2.353604 3.608178-4.101411 4.875031l-2.437515 1.801019c-3.923356 2.882654-9.535167 3.340071-13.956873 1.188058-1.913583-0.957815-3.614317-2.372024-4.889357-4.107551l-42.313711-57.795311-17.786085 18.549471 0 31.238468c0 3.536546-1.439792 7.008624-3.971451 9.522887-2.508123 2.520403-5.968945 3.959172-9.510608 3.959172l-3.032056 0c-3.542686 0-7.014764-1.438769-9.521864-3.965312-0.8913-0.886183-1.641383-1.896186-2.27174-2.996241l-1.688455-3.055592L633.812323 399.545812c0-3.5345 1.438769-7.011694 3.960195-9.520841 2.508123-2.514263 5.967922-3.946892 9.521864-3.946892l3.080152 0c3.507894 0 6.954389 1.432629 9.487072 3.965312 2.508123 2.490727 3.947915 5.967922 3.947915 9.502421l0 48.067762 55.117318-57.468876c1.26276-1.326205 2.817162-2.390443 4.517897-3.091408 4.758374-1.973958 10.691503-0.969071 14.519692 2.687202l2.211365 2.122337c1.343601 1.284249 2.378164 2.799766 3.099594 4.505617 0.669242 1.64036 1.010003 3.415796 1.010003 5.239328 0.026606 3.489474-1.328251 6.788613-3.718695 9.30083l-37.905308 39.522132 45.466518 62.075801c1.65264 2.25639 2.592035 5.070482 2.568499 7.918343C750.696404 522.512425 750.208287 524.586666 749.293451 526.447037zM420.263669 480.171084 460.238103 480.171084 440.23656 436.378695Z" /></svg>